<mxfile host="app.diagrams.net" modified="2023-09-12T03:24:54.805Z" agent="Mozilla/5.0 (Windows NT 10.0; Win64; x64) AppleWebKit/537.36 (KHTML, like Gecko) Chrome/116.0.0.0 Safari/537.36 Edg/116.0.1938.69" etag="GH2rwhaGKXcB1THpRiNM" version="21.7.4" type="github">
  <diagram id="6a731a19-8d31-9384-78a2-239565b7b9f0" name="Page-1">
    <mxGraphModel dx="2298" dy="1273" grid="1" gridSize="10" guides="1" tooltips="1" connect="1" arrows="1" fold="1" page="1" pageScale="1" pageWidth="1169" pageHeight="827" background="none" math="0" shadow="0">
      <root>
        <mxCell id="0" />
        <mxCell id="1" parent="0" />
        <mxCell id="gOz31zoyRrYcPQTDTWxj-59" style="edgeStyle=orthogonalEdgeStyle;rounded=0;orthogonalLoop=1;jettySize=auto;html=1;entryX=0.5;entryY=0;entryDx=0;entryDy=0;dashed=1;dashPattern=8 8;" edge="1" parent="1" source="gOz31zoyRrYcPQTDTWxj-55" target="gOz31zoyRrYcPQTDTWxj-58">
          <mxGeometry relative="1" as="geometry" />
        </mxCell>
        <mxCell id="gOz31zoyRrYcPQTDTWxj-55" value="&lt;font style=&quot;font-size: 18px;&quot;&gt;众悦司机运营状态变更消息&lt;/font&gt;" style="rounded=0;whiteSpace=wrap;html=1;" vertex="1" parent="1">
          <mxGeometry x="310" y="60" width="230" height="110" as="geometry" />
        </mxCell>
        <mxCell id="gOz31zoyRrYcPQTDTWxj-58" value="&lt;font style=&quot;font-size: 18px;&quot;&gt;众悦司机运营状态变更消息&lt;/font&gt;" style="rounded=0;whiteSpace=wrap;html=1;" vertex="1" parent="1">
          <mxGeometry x="310" y="250" width="230" height="110" as="geometry" />
        </mxCell>
      </root>
    </mxGraphModel>
  </diagram>
</mxfile>
